<svg width="28" height="31" viewBox="0 0 28 31" fill="none" xmlns="http://www.w3.org/2000/svg">
<path d="M3.27705 17.0867C3.66243 16.6654 4.06519 15.9374 4.35234 15.3612C4.52687 15.0109 5.03574 14.9812 5.24029 15.3148C5.6278 15.9467 6.14227 16.7517 6.37705 16.9708C6.61336 17.1913 7.39261 17.6793 7.99502 18.0442C8.31883 18.2403 8.30435 18.7244 7.97326 18.908C7.39209 19.2303 6.6533 19.6761 6.37705 19.9984C6.09847 20.3234 5.60002 21.1501 5.22845 21.7909C5.03067 22.132 4.51857 22.1093 4.34497 21.7553C4.03149 21.1161 3.59891 20.3087 3.27705 19.9984C3.00003 19.7313 2.33921 19.3346 1.76971 19.0158C1.40608 18.8123 1.43655 18.2451 1.8113 18.0629C2.33325 17.8091 2.93141 17.4645 3.27705 17.0867Z" fill="black"/>
<path d="M15.1924 24.0871C15.673 23.5618 16.1752 22.654 16.5332 21.9355C16.7509 21.4987 17.3854 21.4616 17.6405 21.8776C18.1237 22.6656 18.7652 23.6693 19.058 23.9426C19.3526 24.2176 20.3243 24.8261 21.0755 25.2811C21.4793 25.5257 21.4612 26.1293 21.0484 26.3582C20.3237 26.7601 19.4024 27.316 19.058 27.7178C18.7106 28.1231 18.089 29.154 17.6257 29.953C17.3791 30.3783 16.7405 30.3502 16.5241 29.9087C16.1332 29.1116 15.5938 28.1048 15.1924 27.7178C14.847 27.3848 14.023 26.8902 13.3128 26.4927C12.8594 26.2389 12.8974 25.5317 13.3647 25.3044C14.0155 24.9879 14.7614 24.5582 15.1924 24.0871Z" fill="black"/>
<path d="M15.3461 5.75103C16.3295 4.67606 17.3638 2.70339 18.0025 1.37198C18.2716 0.811003 19.0786 0.762971 19.4009 1.29517C20.2753 2.73885 21.6543 4.94377 22.243 5.4932C22.8344 6.0451 24.9538 7.34967 26.3228 8.17075C26.8391 8.48035 26.8159 9.2484 26.2861 9.53424C24.9545 10.2528 22.939 11.417 22.243 12.229C21.5429 13.0458 20.2186 15.2871 19.382 16.7472C19.0704 17.2912 18.2584 17.2559 17.9888 16.69C17.289 15.2211 16.1589 13.0126 15.3461 12.229C14.627 11.5357 12.7453 10.4498 11.3803 9.70481C10.7987 9.3874 10.8481 8.49254 11.4519 8.21971C12.7251 7.64442 14.4323 6.74994 15.3461 5.75103Z" fill="black"/>
</svg>
