<svg width="194" height="129" viewBox="0 0 194 129" fill="none" xmlns="http://www.w3.org/2000/svg">
<g clip-path="url(#clip0_182_539)">
<path d="M0.019999 58.7597C0.029999 56.3197 3 55.0697 4.71 56.8197C10.88 63.1197 18.58 66.2597 26.56 68.8197C48.16 75.7297 70.43 78.4597 93.03 78.8397H93.05C94.55 78.8597 95.75 77.6097 95.75 76.1097V65.6997C95.75 63.2497 98.71 62.0197 100.44 63.7597C110.99 74.3197 118.63 81.9797 129.04 92.4097C130.11 93.4797 130.11 95.2197 129.04 96.2897C119.16 106.14 108.57 116.7 97.87 127.36C96.14 129.09 93.18 127.86 93.18 125.41V115.74C93.18 114.33 92.11 113.15 90.71 113C79.78 111.87 69.32 111.28 59.12 109.3C46.84 106.91 34.75 103.4 22.78 99.7097C18.16 98.2897 13.86 95.3897 9.85 92.5397C2.44 87.2297 0.279999 83.2997 0.079999 73.7197C-0.020001 68.8597 -1.03377e-06 63.9897 0.029999 58.7597H0.019999Z" fill="white"/>
<path d="M67.13 18.8399C72.71 13.2399 78.55 7.37987 84.62 1.28987C86.15 -0.250125 88.79 0.829875 88.79 3.00987V8.55987C88.79 9.85987 89.82 10.9399 91.12 10.9999C99.56 11.3599 107.61 11.3099 115.49 12.4199C130.84 14.5699 146.23 16.7999 161.31 20.3599C170.87 22.6199 177.29 26.1799 183.67 31.3199C189.62 36.1099 186.12 42.2199 178.64 49.2899C177.91 49.9799 175.44 49.5099 174.59 48.9799C159.51 39.5599 144.5 36.9699 128.14 34.2399C116.31 32.2699 104.29 31.4399 91.75 30.1599C90.31 30.0099 89.06 31.1299 89.06 32.5799V38.4299C89.06 40.5999 86.43 41.6899 84.9 40.1499C78.87 34.0799 72.96 28.1399 67.14 22.2799C66.19 21.3299 66.19 19.7999 67.14 18.8499L67.13 18.8399Z" fill="white"/>
<path d="M186.17 54.9499C189.06 52.6899 193.3 54.6299 193.47 58.2999C193.84 66.4499 193.97 74.8099 190.02 82.7199C187.96 86.8499 184.68 90.7599 181.05 93.6599C172.11 100.8 161.87 105.43 150.56 108.92C147.65 109.82 144.69 107.65 144.69 104.6C144.69 98.5099 144.67 92.6099 144.71 86.7099C144.75 81.7699 143.19 75.6199 145.56 72.2699C147.68 69.2599 154.26 69.5399 158.75 67.9999C165.14 65.8099 171.73 63.8899 177.64 60.7399C180.65 59.1399 183.42 57.0999 186.17 54.9399V54.9499Z" fill="white"/>
<path d="M50.95 20.8098V28.3898C50.95 31.0298 49.07 33.1598 46.52 33.8598C33.6 37.4098 25.6 41.9098 14.84 46.0698C12.23 47.0798 8.98 47.9398 7.49 45.5698C0.840001 34.9898 2.32 32.5198 11.18 27.2498C21.49 21.1198 32.46 17.3598 44.4 15.3098C47.82 14.7198 50.95 17.3498 50.95 20.8198V20.8098Z" fill="white"/>
</g>
<defs>
<clipPath id="clip0_182_539">
<rect width="193.64" height="127.58" fill="white" transform="translate(0 0.569824)"/>
</clipPath>
</defs>
</svg>
